# xmcd
#
# Track frame offsets: 
#        150
#        16403
#        30668
#        48264
#        66565
#        79848
#        95276
#        108813
#        124233
#        136129
#        148632
#        161466
#        174832
#        192622
#        205845
#        222495
#        238410
#        249075
#        267742
#        286695
#
# Disc length: 4042 seconds
#
# Revision: 2
# Processed by: cddbd v1.5.2PL0 Copyright (c) Steve Scherf et al.
# Submitted via: ExactAudioCopyFreeDBPlugin 1.0
#
DISCID=230fc814
DTITLE=George Jackson - George Jackson in Muscle Shoals
DYEAR=2002
DGENRE=Soul
TTITLE0=Help Me I'm in Need
TTITLE1=Sweet Things
TTITLE2=If I Could Open Up My Heart
TTITLE3=Messin' with My Mind
TTITLE4=Can't Let My Family Down
TTITLE5=Searching for the Right words
TTITLE6=Love, I Thought I Would Never Find Love
TTITLE7=Cheatin' in the Next Room
TTITLE8=Since You Came Into My Life
TTITLE9=When Love is For Real
TTITLE10=Nothin' But a Good love
TTITLE11=It Takes a Storm to Make a Rainbow
TTITLE12=The Weekend
TTITLE13=Slippin' on Your Love
TTITLE14=Unlock Your Mind
TTITLE15=For the Sake of You
TTITLE16=I Don't Do Windows
TTITLE17=Make You Mine
TTITLE18=Down Home Blues
TTITLE19=A Knight in Shining Armour
EXTD=George Jackson wrote one of the greatest rock and roll songs of all
EXTD=time, "Good Time Rock and Roll" that was recorded by Bob Seger a
EXTD=t Muscle Shoals Sound Studio.
EXTT0=
EXTT1=
EXTT2=
EXTT3=
EXTT4=
EXTT5=
EXTT6=
EXTT7=
EXTT8=
EXTT9=
EXTT10=
EXTT11=
EXTT12=
EXTT13=
EXTT14=
EXTT15=
EXTT16=
EXTT17=
EXTT18=
EXTT19=
PLAYORDER=
